<mxfile host="Electron" agent="Mozilla/5.0 (Windows NT 10.0; Win64; x64) AppleWebKit/537.36 (KHTML, like Gecko) draw.io/24.7.17 Chrome/128.0.6613.36 Electron/32.0.1 Safari/537.36" version="24.7.17">
  <diagram name="Page-1" id="03018318-947c-dd8e-b7a3-06fadd420f32">
    <mxGraphModel dx="733" dy="613" grid="1" gridSize="10" guides="1" tooltips="1" connect="1" arrows="1" fold="1" page="1" pageScale="1" pageWidth="1100" pageHeight="850" background="none" math="0" shadow="0">
      <root>
        <mxCell id="0" />
        <mxCell id="1" parent="0" />
        <mxCell id="677b7b8949515195-1" value="" style="whiteSpace=wrap;html=1;rounded=0;shadow=0;labelBackgroundColor=none;strokeColor=#000000;strokeWidth=1;fillColor=none;fontFamily=Verdana;fontSize=12;fontColor=#000000;align=center;comic=1;" parent="1" vertex="1">
          <mxGeometry x="20" y="20" width="350" height="1290" as="geometry" />
        </mxCell>
        <mxCell id="677b7b8949515195-2" value="LOGO" style="whiteSpace=wrap;html=1;rounded=0;shadow=0;labelBackgroundColor=none;strokeWidth=1;fontFamily=Verdana;fontSize=28;align=center;comic=1;" parent="1" vertex="1">
          <mxGeometry x="40" y="80" width="50" height="50" as="geometry" />
        </mxCell>
        <mxCell id="677b7b8949515195-3" value="Search" style="strokeWidth=1;shadow=0;dashed=0;align=center;html=1;shape=mxgraph.mockup.forms.searchBox;strokeColor=#999999;mainText=;strokeColor2=#008cff;fontColor=#666666;fontSize=17;align=left;spacingLeft=3;rounded=0;labelBackgroundColor=none;comic=1;" parent="1" vertex="1">
          <mxGeometry x="260" y="80" width="110" height="30" as="geometry" />
        </mxCell>
        <mxCell id="677b7b8949515195-9" value="" style="line;strokeWidth=1;html=1;rounded=0;shadow=0;labelBackgroundColor=none;fillColor=none;fontFamily=Verdana;fontSize=14;fontColor=#000000;align=center;comic=1;" parent="1" vertex="1">
          <mxGeometry x="20" y="140" width="350" height="10" as="geometry" />
        </mxCell>
        <mxCell id="ubhy5sFj4Xcip8Dqailu-1" value="&lt;b&gt;&lt;font style=&quot;font-size: 18px;&quot;&gt;Patriot Thanks&lt;/font&gt;&lt;/b&gt;&lt;div&gt;&lt;span style=&quot;font-size: 18px;&quot;&gt;&lt;b&gt;Search for a Business&lt;/b&gt;&lt;/span&gt;&lt;/div&gt;" style="text;html=1;align=center;verticalAlign=middle;whiteSpace=wrap;rounded=0;" parent="1" vertex="1">
          <mxGeometry x="90" y="90" width="210" height="45" as="geometry" />
        </mxCell>
        <mxCell id="ubhy5sFj4Xcip8Dqailu-5" value="" style="line;strokeWidth=1;html=1;rounded=0;shadow=0;labelBackgroundColor=none;fillColor=none;fontFamily=Verdana;fontSize=14;fontColor=#000000;align=center;comic=1;" parent="1" vertex="1">
          <mxGeometry x="20" y="1240" width="350" height="10" as="geometry" />
        </mxCell>
        <mxCell id="ubhy5sFj4Xcip8Dqailu-6" value="Copyright footer&lt;div&gt;&lt;br&gt;&lt;/div&gt;&lt;div&gt;contact: email&lt;/div&gt;" style="text;html=1;align=center;verticalAlign=middle;whiteSpace=wrap;rounded=0;" parent="1" vertex="1">
          <mxGeometry x="30" y="1250" width="330" height="60" as="geometry" />
        </mxCell>
        <mxCell id="RWafx4XU2KkWU0paZ261-2" value="slick_nav&lt;div&gt;menu&lt;/div&gt;&lt;div&gt;button&lt;/div&gt;" style="rounded=0;whiteSpace=wrap;html=1;" parent="1" vertex="1">
          <mxGeometry x="300" y="20" width="60" height="50" as="geometry" />
        </mxCell>
        <mxCell id="ueaR0VijUR5GOhpklZFX-53" value="" style="endArrow=none;html=1;rounded=0;" edge="1" parent="1">
          <mxGeometry width="50" height="50" relative="1" as="geometry">
            <mxPoint x="530" y="1085" as="sourcePoint" />
            <mxPoint x="530" y="1085" as="targetPoint" />
          </mxGeometry>
        </mxCell>
        <mxCell id="ueaR0VijUR5GOhpklZFX-60" value="&lt;div style=&quot;text-align: justify&quot;&gt;&lt;p style=&quot;font-size: large; font-family: &amp;quot;Times New Roman&amp;quot;, Times, serif; text-indent: 2%; font-weight: 700; text-align: start;&quot; class=&quot;paragraph_style&quot;&gt;In Patriot Thanks, you can search for local businesses within your local area that offer discounts and/or incentives for&amp;nbsp;&lt;span style=&quot;background-color: initial;&quot;&gt;&quot;active duty, veterans, first responders, and their spouses.&quot; If you know of a business that offers discounts and/or incentives, but is not listed in our files, please feel free to submit a correction.&amp;nbsp;&lt;/span&gt;&lt;/p&gt;&lt;/div&gt;" style="whiteSpace=wrap;html=1;rounded=0;shadow=0;labelBackgroundColor=none;strokeWidth=1;fillColor=none;fontFamily=Verdana;fontSize=12;align=center;verticalAlign=top;spacing=10;comic=1;" vertex="1" parent="1">
          <mxGeometry x="30" y="160" width="330" height="240" as="geometry" />
        </mxCell>
        <mxCell id="ueaR0VijUR5GOhpklZFX-61" value="Search by business name or city, state, zip" style="strokeWidth=1;shadow=0;dashed=0;align=center;html=1;shape=mxgraph.mockup.forms.searchBox;strokeColor=#999999;mainText=;strokeColor2=#008cff;fontColor=#666666;fontSize=17;align=left;spacingLeft=3;whiteSpace=wrap;" vertex="1" parent="1">
          <mxGeometry x="40" y="410" width="320" height="45" as="geometry" />
        </mxCell>
        <mxCell id="ueaR0VijUR5GOhpklZFX-62" value="Map of local area with pinpointed business" style="text;html=1;align=center;verticalAlign=middle;whiteSpace=wrap;rounded=0;" vertex="1" parent="1">
          <mxGeometry x="30" y="475" width="330" height="30" as="geometry" />
        </mxCell>
        <mxCell id="ueaR0VijUR5GOhpklZFX-63" value="" style="verticalLabelPosition=bottom;shadow=0;dashed=0;align=center;html=1;verticalAlign=top;strokeWidth=1;shape=mxgraph.mockup.misc.map;" vertex="1" parent="1">
          <mxGeometry x="30" y="505" width="330" height="305" as="geometry" />
        </mxCell>
        <mxCell id="ueaR0VijUR5GOhpklZFX-64" value="&lt;div style=&quot;text-align: justify&quot;&gt;&lt;p style=&quot;font-size: large; font-family: &amp;quot;Times New Roman&amp;quot;, Times, serif; text-indent: 2%; font-weight: 700; text-align: start;&quot; class=&quot;paragraph_style&quot;&gt;Scroll list of local business within the area and if they offer discounts and/or incentives for&amp;nbsp;&lt;span style=&quot;background-color: initial;&quot;&gt;&quot;active duty, veterans, first responders, and their spouses.&quot;&lt;/span&gt;&lt;/p&gt;&lt;/div&gt;" style="whiteSpace=wrap;html=1;rounded=0;shadow=0;labelBackgroundColor=none;strokeWidth=1;fillColor=none;fontFamily=Verdana;fontSize=12;align=center;verticalAlign=top;spacing=10;comic=1;" vertex="1" parent="1">
          <mxGeometry x="30" y="825" width="330" height="395" as="geometry" />
        </mxCell>
        <mxCell id="ueaR0VijUR5GOhpklZFX-65" value="" style="verticalLabelPosition=bottom;shadow=0;dashed=0;align=center;html=1;verticalAlign=top;strokeWidth=1;shape=mxgraph.mockup.graphics.simpleIcon;strokeColor=#999999;" vertex="1" parent="1">
          <mxGeometry x="40" y="960" width="50" height="50" as="geometry" />
        </mxCell>
        <mxCell id="ueaR0VijUR5GOhpklZFX-66" value="" style="verticalLabelPosition=bottom;shadow=0;dashed=0;align=center;html=1;verticalAlign=top;strokeWidth=1;shape=mxgraph.mockup.graphics.simpleIcon;strokeColor=#999999;" vertex="1" parent="1">
          <mxGeometry x="40" y="1030" width="50" height="50" as="geometry" />
        </mxCell>
        <UserObject label="&lt;font face=&quot;Helvetica&quot; style=&quot;font-size: 12px;&quot;&gt;Information about the local business, address, phone number,&lt;/font&gt;&lt;font face=&quot;Helvetica&quot; style=&quot;font-size: 12px;&quot;&gt;&amp;nbsp;&lt;/font&gt;&lt;div&gt;&lt;font face=&quot;Helvetica&quot; style=&quot;font-size: 12px;&quot;&gt;what sort of discount and/or incentives they offer for&amp;nbsp;&lt;span style=&quot;text-indent: 2%;&quot;&gt;&quot;active duty, veterans, first responders, and their spouses.&quot;&lt;/span&gt;&lt;/font&gt;&lt;/div&gt;" placeholders="1" name="Variable" id="ueaR0VijUR5GOhpklZFX-67">
          <mxCell style="text;html=1;strokeColor=none;fillColor=none;align=left;verticalAlign=middle;whiteSpace=wrap;overflow=hidden;" vertex="1" parent="1">
            <mxGeometry x="100" y="960" width="250" height="50" as="geometry" />
          </mxCell>
        </UserObject>
        <UserObject label="&lt;font face=&quot;Helvetica&quot; style=&quot;font-size: 12px;&quot;&gt;Information about the local business, address, phone number,&lt;/font&gt;&lt;font face=&quot;Helvetica&quot; style=&quot;font-size: 12px;&quot;&gt;&amp;nbsp;&lt;/font&gt;&lt;div&gt;&lt;font face=&quot;Helvetica&quot; style=&quot;font-size: 12px;&quot;&gt;what sort of discount and/or incentives they offer for&amp;nbsp;&lt;span style=&quot;text-indent: 2%;&quot;&gt;&quot;active duty, veterans, first responders, and their spouses.&quot;&lt;/span&gt;&lt;/font&gt;&lt;/div&gt;" placeholders="1" name="Variable" id="ueaR0VijUR5GOhpklZFX-68">
          <mxCell style="text;html=1;strokeColor=none;fillColor=none;align=left;verticalAlign=middle;whiteSpace=wrap;overflow=hidden;" vertex="1" parent="1">
            <mxGeometry x="100" y="1030" width="250" height="50" as="geometry" />
          </mxCell>
        </UserObject>
        <mxCell id="ueaR0VijUR5GOhpklZFX-69" value="" style="verticalLabelPosition=top;shadow=0;dashed=0;align=center;html=1;verticalAlign=bottom;strokeWidth=1;shape=mxgraph.mockup.misc.pin;fillColor2=#ccccff;fillColor3=#0000ff;strokeColor=#000066;" vertex="1" parent="1">
          <mxGeometry x="100" y="580" width="10" height="25" as="geometry" />
        </mxCell>
        <mxCell id="ueaR0VijUR5GOhpklZFX-70" value="" style="verticalLabelPosition=top;shadow=0;dashed=0;align=center;html=1;verticalAlign=bottom;strokeWidth=1;shape=mxgraph.mockup.misc.pin;fillColor2=#ccccff;fillColor3=#0000ff;strokeColor=#000066;" vertex="1" parent="1">
          <mxGeometry x="180" y="600" width="10" height="25" as="geometry" />
        </mxCell>
        <mxCell id="ueaR0VijUR5GOhpklZFX-71" value="" style="verticalLabelPosition=top;shadow=0;dashed=0;align=center;html=1;verticalAlign=bottom;strokeWidth=1;shape=mxgraph.mockup.misc.pin;fillColor2=#ccccff;fillColor3=#0000ff;strokeColor=#000066;" vertex="1" parent="1">
          <mxGeometry x="200" y="620" width="10" height="25" as="geometry" />
        </mxCell>
        <mxCell id="ueaR0VijUR5GOhpklZFX-72" value="" style="verticalLabelPosition=top;shadow=0;dashed=0;align=center;html=1;verticalAlign=bottom;strokeWidth=1;shape=mxgraph.mockup.misc.pin;fillColor2=#ccccff;fillColor3=#0000ff;strokeColor=#000066;" vertex="1" parent="1">
          <mxGeometry x="210" y="645" width="10" height="25" as="geometry" />
        </mxCell>
        <mxCell id="ueaR0VijUR5GOhpklZFX-73" value="" style="verticalLabelPosition=bottom;shadow=0;dashed=0;align=center;html=1;verticalAlign=top;strokeWidth=1;shape=mxgraph.mockup.graphics.simpleIcon;strokeColor=#999999;" vertex="1" parent="1">
          <mxGeometry x="40" y="1090" width="50" height="50" as="geometry" />
        </mxCell>
        <mxCell id="ueaR0VijUR5GOhpklZFX-74" value="" style="verticalLabelPosition=bottom;shadow=0;dashed=0;align=center;html=1;verticalAlign=top;strokeWidth=1;shape=mxgraph.mockup.graphics.simpleIcon;strokeColor=#999999;" vertex="1" parent="1">
          <mxGeometry x="40" y="1160" width="50" height="50" as="geometry" />
        </mxCell>
        <UserObject label="&lt;font face=&quot;Helvetica&quot; style=&quot;font-size: 12px;&quot;&gt;Information about the local business, address, phone number,&lt;/font&gt;&lt;font face=&quot;Helvetica&quot; style=&quot;font-size: 12px;&quot;&gt;&amp;nbsp;&lt;/font&gt;&lt;div&gt;&lt;font face=&quot;Helvetica&quot; style=&quot;font-size: 12px;&quot;&gt;what sort of discount and/or incentives they offer for&amp;nbsp;&lt;span style=&quot;text-indent: 2%;&quot;&gt;&quot;active duty, veterans, first responders, and their spouses.&quot;&lt;/span&gt;&lt;/font&gt;&lt;/div&gt;" placeholders="1" name="Variable" id="ueaR0VijUR5GOhpklZFX-75">
          <mxCell style="text;html=1;strokeColor=none;fillColor=none;align=left;verticalAlign=middle;whiteSpace=wrap;overflow=hidden;" vertex="1" parent="1">
            <mxGeometry x="100" y="1090" width="250" height="50" as="geometry" />
          </mxCell>
        </UserObject>
        <UserObject label="&lt;font face=&quot;Helvetica&quot; style=&quot;font-size: 12px;&quot;&gt;Information about the local business, address, phone number,&lt;/font&gt;&lt;font face=&quot;Helvetica&quot; style=&quot;font-size: 12px;&quot;&gt;&amp;nbsp;&lt;/font&gt;&lt;div&gt;&lt;font face=&quot;Helvetica&quot; style=&quot;font-size: 12px;&quot;&gt;what sort of discount and/or incentives they offer for&amp;nbsp;&lt;span style=&quot;text-indent: 2%;&quot;&gt;&quot;active duty, veterans, first responders, and their spouses.&quot;&lt;/span&gt;&lt;/font&gt;&lt;/div&gt;" placeholders="1" name="Variable" id="ueaR0VijUR5GOhpklZFX-76">
          <mxCell style="text;html=1;strokeColor=none;fillColor=none;align=left;verticalAlign=middle;whiteSpace=wrap;overflow=hidden;" vertex="1" parent="1">
            <mxGeometry x="100" y="1160" width="250" height="50" as="geometry" />
          </mxCell>
        </UserObject>
      </root>
    </mxGraphModel>
  </diagram>
</mxfile>
